<svg width="354" height="571" viewBox="0 0 354 571" fill="none" xmlns="http://www.w3.org/2000/svg">
<path d="M313.707 145.296C312.751 145.464 311.785 145.568 310.854 145.621C310.666 145.699 310.453 145.759 310.261 145.815C310.261 145.815 309.939 145.895 309.614 145.952C308.962 146.067 127.454 176.443 70.3918 185.974C69.8746 186.088 69.0931 186.226 68.134 186.374C64.3411 186.955 56.8628 188.344 48.7542 185.929C44.2853 184.594 40.0227 182.528 36.4034 179.923C29.0038 174.563 25.8295 168.03 21.4295 159.007C15.5148 146.872 13.8433 136.694 12.3619 127.714C11.4324 121.97 9.87254 112.422 10.7091 100.1C11.1757 93.0135 11.5807 86.9669 14.0859 80.0117C16.7071 72.7004 22.1283 62.7456 29.4456 56.6626C32.4781 54.0676 35.6941 52.3799 38.981 51.5972C40.0115 51.3478 41.0791 51.1814 42.166 51.1235C42.5018 50.997 42.867 50.91 43.2361 50.8447C120.507 37.0903 197.804 23.3538 275.08 9.62108L286.282 7.64006C286.89 7.53256 287.513 7.51183 288.13 7.58176C288.474 7.49863 288.864 7.42954 289.255 7.36044C311.464 3.43292 335.017 31.1794 341.761 69.1935C348.492 107.255 335.916 141.368 313.707 145.296ZM313.818 139.995C334.222 129.046 341.975 95.7635 337.405 70.0085C331.084 34.3812 309.832 8.24194 290.011 11.7471C289.577 11.8239 275.836 14.0078 275.836 14.0078C198.56 27.7405 121.263 41.4771 43.9921 55.2315C43.8401 55.2584 40.8761 55.7154 39.9975 55.9379C37.3976 56.5543 34.8021 57.9532 32.2725 60.1013C25.6201 65.6415 20.5421 75.1328 18.2127 81.5645C15.919 87.9452 15.5291 93.6982 15.08 100.379C14.2827 112.291 15.7232 121.167 16.6758 127.041C18.1072 135.739 19.7209 145.591 25.3542 157.149C29.6211 165.928 32.4614 171.714 38.9626 176.427C43.7437 179.901 48.3403 181.325 49.9871 181.773C57.8247 183.922 64.4525 182.661 66.7933 182.225C93.0989 177.282 186.277 161.811 203.655 159.051C210.6 157.935 218.762 156.738 244.337 152.729C249.433 151.918 265.53 149.384 285.89 145.761C303.116 142.648 311.775 141.094 313.818 139.995Z" stroke="#502E16" stroke-width="3" stroke-miterlimit="10"/>
<path d="M51.1327 179.854C50.4421 179.565 49.7515 179.276 49.0608 178.986C52.1198 172.296 64.512 143.436 56.6405 108.628C50.8067 82.8331 36.9953 67.6163 31.2242 61.9309C32.4722 60.6915 33.7383 59.446 34.9863 58.2066C40.8426 64.2722 54.7941 80.4642 60.2952 107.394C67.6576 143.51 54.4495 172.918 51.1327 179.854Z" fill="#502E16"/>
<path d="M263.07 569.02C264.972 562.378 266.878 555.757 268.779 549.115C271.937 537.957 275.095 526.799 278.249 515.619C279.398 513.521 279.191 511.517 278.964 510.497C278.741 509.497 278.102 507.626 276.256 506.485L255.613 493.749C249.095 489.719 244.385 482.616 242.731 474.265C241.076 465.914 242.57 456.966 246.835 449.694L260.22 426.949C261.42 424.903 261.292 422.898 261.126 421.882C260.941 420.871 260.377 418.977 258.612 417.744L235.171 401.432C228.974 397.122 224.766 390.23 223.319 382.02C221.854 373.815 223.349 365.367 227.505 358.242L241.229 334.712C242.443 332.639 242.288 330.597 242.103 329.587C241.913 328.554 241.312 326.671 239.472 325.461L217.8 311.29C211.48 307.154 206.948 300.043 205.399 291.818C203.85 283.594 205.365 274.753 209.577 267.611L210.433 266.328L225.556 246.55L226.724 245.627C228.667 244.103 229.74 241.528 229.528 238.913C229.325 236.341 227.856 234.11 225.773 233.178L196.852 222.375L196.13 221.959C189.386 217.997 184.504 210.834 182.773 202.301C180.185 191.215 177.597 180.128 175.028 169.035C182.654 166.733 190.265 164.459 197.891 162.157C199.742 173.446 201.594 184.734 203.441 196.002C203.762 197.584 204.596 198.942 205.754 199.838L233.491 210.207C243.12 214.243 249.679 224.074 250.617 235.869C251.497 246.886 247.255 257.716 239.508 264.527L226.717 281.256C225.786 283.152 225.931 284.947 226.098 285.872C226.288 286.904 226.894 288.809 228.729 289.998L250.401 304.169C256.721 308.305 261.226 315.379 262.794 323.598C264.361 331.817 262.861 340.63 258.691 347.782L244.962 371.29C243.781 373.331 243.89 375.341 244.071 376.331C244.256 377.341 244.816 379.214 246.581 380.448L270.022 396.759C276.218 401.069 280.431 407.982 281.886 416.235C283.337 424.467 281.827 432.943 277.63 440.058L264.245 462.803C262.998 464.909 263.157 466.972 263.37 468.02C263.582 469.067 264.211 470.987 266.103 472.159L286.746 484.895C288.739 486.173 297.563 492.134 299.507 503.781C300.442 509.468 299.386 514.286 298.766 516.927C296.671 526.058 291.913 531.981 289.522 534.64C280.717 546.157 271.893 557.589 263.07 569.02Z" fill="#502E16"/>
<path d="M235.47 141.449C235.543 141.922 235.449 142.332 235.186 142.678C234.924 143.025 234.556 143.235 234.083 143.308L228.249 144.208C227.776 144.281 227.367 144.191 227.021 143.938C226.676 143.685 226.466 143.322 226.393 142.849L223.381 123.408C223.308 122.936 223.398 122.526 223.651 122.181C223.904 121.836 224.266 121.627 224.739 121.554L230.574 120.653C231.047 120.581 231.461 120.67 231.816 120.921C232.171 121.173 232.385 121.535 232.458 122.008L233.275 127.277L231.248 127.59L230.459 122.494L225.42 123.272L228.378 142.365L233.416 141.588L232.553 136.015L234.58 135.702L235.47 141.449ZM248.557 139.43C248.631 139.903 248.536 140.312 248.274 140.659C248.021 141.005 247.658 141.214 247.185 141.287L240.844 142.265C240.371 142.338 239.962 142.248 239.616 141.995C239.271 141.742 239.061 141.379 238.988 140.906L235.976 121.465C235.903 120.992 235.993 120.583 236.246 120.238C236.499 119.892 236.861 119.683 237.334 119.61L243.675 118.632C244.148 118.559 244.558 118.649 244.903 118.902C245.258 119.154 245.473 119.516 245.546 119.989L248.557 139.43ZM246.518 139.566L243.56 120.473L238.016 121.328L240.973 140.422L246.518 139.566ZM262.082 138.988L259.968 139.314L253.876 127.834L254.088 127.386L257.679 126.832L256.387 118.494L251.219 119.291L254.452 140.165L252.44 140.476L248.931 117.821L256.517 116.651C256.99 116.578 257.399 116.668 257.744 116.921C258.09 117.174 258.299 117.537 258.373 118.01L259.705 126.608C259.873 127.699 259.224 128.357 257.757 128.584C257.613 128.606 257.4 128.634 257.118 128.667C256.835 128.691 256.631 128.713 256.506 128.732C258.368 132.14 260.226 135.559 262.082 138.988ZM274.547 137.065L272.332 137.407L265.419 127.327L267.105 138.213L265.093 138.524L261.584 115.869L263.596 115.559L265.172 125.735L268.344 114.826L270.531 114.489L270.551 114.619L267.096 126.194L274.547 137.065Z" fill="#502E16"/>
<path d="M239.75 175.017L245.309 174.306C245.388 177.228 244.737 179.597 243.354 181.411C241.981 183.223 239.991 184.33 237.385 184.732C234.736 185.141 232.379 184.597 230.315 183.102C228.259 181.596 227.027 179.527 226.62 176.895C226.21 174.246 226.773 171.878 228.308 169.792C229.853 167.704 231.958 166.454 234.625 166.043C237.248 165.638 239.574 166.186 241.603 167.688C243.009 168.725 244.133 170.299 244.976 172.41L239.366 173.662C238.431 171.814 237.078 171.027 235.306 171.3C234.176 171.474 233.303 172.009 232.686 172.905C232.077 173.799 231.866 174.85 232.053 176.057C232.233 177.221 232.743 178.13 233.582 178.783C234.42 179.427 235.391 179.664 236.494 179.494C237.615 179.321 238.453 178.849 239.01 178.079C239.575 177.307 239.822 176.286 239.75 175.017ZM246.787 169.716L251.66 168.964L252.795 176.299C252.91 177.038 253.275 177.359 253.892 177.264C254.5 177.17 254.747 176.754 254.632 176.016L253.497 168.681L258.37 167.929L259.491 175.173C259.752 176.858 259.412 178.369 258.472 179.706C257.53 181.034 256.247 181.823 254.623 182.073C252.773 182.359 251.179 181.916 249.841 180.743C248.801 179.828 248.137 178.436 247.848 176.569L246.787 169.716ZM265.326 161.761L268.079 179.544L263.206 180.296L260.453 162.512L265.326 161.761ZM272.531 160.649L273.302 165.626L275.491 165.288L276.287 170.435L274.098 170.772C274.258 171.806 274.529 172.493 274.911 172.835C275.302 173.174 275.931 173.277 276.8 173.143L277.593 178.264C277.342 178.311 277.156 178.344 277.035 178.363C275.931 178.533 274.849 178.438 273.788 178.077C272.736 177.714 271.847 177.14 271.12 176.354C270.2 175.349 269.596 173.921 269.31 172.071L267.658 161.401L272.531 160.649ZM277.901 164.917L282.774 164.165L283.91 171.5C284.024 172.238 284.39 172.56 285.006 172.465C285.614 172.371 285.861 171.955 285.747 171.217L284.611 163.882L289.484 163.13L290.606 170.374C290.867 172.059 290.527 173.57 289.587 174.906C288.645 176.234 287.362 177.024 285.737 177.274C283.887 177.56 282.293 177.116 280.956 175.944C279.916 175.028 279.251 173.637 278.962 171.77L277.901 164.917ZM299.417 161.278L300.223 166.489C299.855 166.35 299.532 166.302 299.254 166.345C298.368 166.482 298.03 167.228 298.239 168.583L299.194 174.745L294.32 175.497L293.221 168.396C292.931 166.52 293.212 164.947 294.065 163.677C294.916 162.399 296.198 161.627 297.909 161.364C298.291 161.305 298.794 161.276 299.417 161.278ZM314.779 166.498L307.392 167.638C307.221 167.282 307.111 166.947 307.063 166.635C306.996 166.2 307.008 165.763 307.1 165.322L309.575 164.94C309.252 164.002 308.635 163.604 307.723 163.745C307.115 163.839 306.66 164.176 306.358 164.756C306.056 165.327 305.967 166.017 306.092 166.824C306.222 167.667 306.51 168.321 306.956 168.785C307.41 169.249 307.937 169.435 308.536 169.342C309.022 169.267 309.454 168.952 309.83 168.395L313.122 171.303C311.985 172.518 310.626 173.248 309.045 173.492C307.117 173.79 305.397 173.392 303.885 172.301C302.373 171.209 301.469 169.707 301.173 167.797C300.878 165.894 301.29 164.186 302.407 162.671C303.533 161.154 305.06 160.247 306.989 159.95C308.873 159.659 310.554 160.058 312.03 161.146C313.513 162.225 314.4 163.702 314.69 165.578C314.72 165.769 314.75 166.076 314.779 166.498Z" fill="#502E16"/>
</svg>
