<svg width="197" height="92" viewBox="0 0 197 92" fill="none" xmlns="http://www.w3.org/2000/svg">
<path d="M95.033 45.374C95.0333 45.8525 94.8773 46.2432 94.5649 46.5459C94.2526 46.8486 93.8572 47 93.3787 47H87.4754C86.9969 47 86.6061 46.8486 86.3032 46.5459C86.0003 46.2432 85.8487 45.8525 85.8484 45.374L85.8364 25.7012C85.8361 25.2227 85.9872 24.832 86.2898 24.5293C86.5923 24.2266 86.9828 24.0752 87.4614 24.0752H93.3647C93.8432 24.0752 94.2388 24.2266 94.5515 24.5293C94.8642 24.832 95.0207 25.2227 95.0209 25.7012L95.0242 31.0332H92.9734L92.9703 25.877H87.8726L87.8844 45.1982H92.9821L92.9786 39.5586H95.0294L95.033 45.374ZM108.275 45.374C108.275 45.8525 108.119 46.2432 107.807 46.5459C107.505 46.8486 107.114 47 106.636 47H100.22C99.741 47 99.3503 46.8486 99.0474 46.5459C98.7444 46.2432 98.5928 45.8525 98.5925 45.374L98.5805 25.7012C98.5802 25.2227 98.7314 24.832 99.0339 24.5293C99.3364 24.2266 99.727 24.0752 100.205 24.0752H106.622C107.1 24.0752 107.491 24.2266 107.794 24.5293C108.106 24.832 108.263 25.2227 108.263 25.7012L108.275 45.374ZM106.239 45.1982L106.227 25.877H100.617L100.629 45.1982H106.239ZM121.709 47H119.57L115.3 34.7246L115.578 34.3144H119.211L119.206 25.877H113.976L113.989 47H111.953L111.939 24.0752H119.615C120.093 24.0752 120.484 24.2266 120.787 24.5293C121.09 24.832 121.241 25.2227 121.242 25.7012L121.247 34.4023C121.248 35.5059 120.506 36.0576 119.021 36.0576C118.875 36.0576 118.66 36.0527 118.377 36.043C118.094 36.0234 117.889 36.0137 117.762 36.0137C119.082 39.666 120.398 43.3281 121.709 47ZM134.321 47H132.08L126.785 35.9844L126.792 47H124.756L124.742 24.0752H126.778L126.784 34.373L131.582 24.0752H133.794L133.794 24.207L128.616 35.1201L134.321 47Z" fill="#502E16"/>
<path d="M97.9852 65.2065L103.588 65.3516C103.221 68.2519 102.216 70.4932 100.573 72.0752C98.939 73.6572 96.8037 74.4482 94.167 74.4482C91.4863 74.4482 89.2402 73.5518 87.4287 71.7588C85.6259 69.957 84.7238 67.7246 84.7224 65.0615C84.7209 62.3809 85.6381 60.1265 87.474 58.2983C89.3187 56.4702 91.5902 55.5562 94.2885 55.5562C96.9427 55.5562 99.1581 56.4526 100.934 58.2456C102.166 59.4849 103.037 61.2119 103.548 63.4268L97.813 63.8091C97.1703 61.8403 95.9525 60.856 94.1595 60.856C93.0169 60.856 92.0723 61.2515 91.3257 62.0425C90.5879 62.8335 90.2193 63.8398 90.2199 65.0615C90.2206 66.2393 90.5859 67.2148 91.3158 67.9883C92.0457 68.7529 92.9688 69.1352 94.085 69.1352C95.2188 69.1352 96.1195 68.7969 96.7871 68.1201C97.4634 67.4434 97.8628 66.4722 97.9852 65.2065ZM105.748 61.0405H110.679L110.683 68.4629C110.683 69.21 110.995 69.5835 111.619 69.5835C112.235 69.5835 112.542 69.21 112.542 68.4629L112.538 61.0405H117.468L117.472 68.3706C117.473 70.0757 116.907 71.5171 115.774 72.6948C114.641 73.8638 113.252 74.4482 111.609 74.4482C109.737 74.4482 108.229 73.7671 107.086 72.4048C106.198 71.3413 105.753 69.8647 105.752 67.9751L105.748 61.0405ZM125.283 56.0044L125.293 74H120.363L120.353 56.0044H125.283ZM132.574 56.0044L132.577 61.0405H134.791L134.794 66.248H132.579C132.58 67.2939 132.743 68.0146 133.068 68.4102C133.403 68.8057 134.009 69.0034 134.888 69.0034L134.891 74.1846C134.636 74.1934 134.447 74.1977 134.324 74.1977C133.208 74.1977 132.153 73.9385 131.16 73.4199C130.175 72.9014 129.384 72.1982 128.785 71.3105C128.029 70.1768 127.65 68.6738 127.649 66.8018L127.643 56.0044H132.574ZM137.23 61.0405H142.161L142.165 68.4629C142.166 69.21 142.478 69.5835 143.102 69.5835C143.717 69.5835 144.024 69.21 144.024 68.4629L144.02 61.0405H148.951L148.955 68.3706C148.956 70.0757 148.39 71.5171 147.256 72.6948C146.123 73.8638 144.735 74.4482 143.091 74.4482C141.219 74.4482 139.712 73.7671 138.568 72.4048C137.68 71.3413 137.235 69.8647 137.234 67.9751L137.23 61.0405ZM159.049 60.7241L159.052 65.9976C158.709 65.8042 158.397 65.7075 158.116 65.7075C157.219 65.7075 156.771 66.3931 156.772 67.7642L156.776 74H151.845L151.841 66.8149C151.84 64.9165 152.358 63.4048 153.394 62.2798C154.431 61.146 155.815 60.5791 157.546 60.5791C157.933 60.5791 158.434 60.6274 159.049 60.7241ZM173.437 68.2256H165.961C165.847 67.8477 165.79 67.5005 165.789 67.1841C165.789 66.7446 165.868 66.314 166.026 65.8921H168.531C168.355 64.9165 167.805 64.4287 166.882 64.4287C166.267 64.4287 165.766 64.6924 165.38 65.2197C164.993 65.7383 164.8 66.4062 164.801 67.2236C164.801 68.0762 164.986 68.7661 165.356 69.2935C165.734 69.8208 166.226 70.0845 166.833 70.0845C167.325 70.0845 167.799 69.8384 168.256 69.3462L171.066 72.7212C169.757 73.7495 168.303 74.2637 166.703 74.2637C164.752 74.2637 163.112 73.6089 161.784 72.2993C160.457 70.9897 159.792 69.3682 159.791 67.4346C159.79 65.5098 160.457 63.8838 161.792 62.5566C163.136 61.2295 164.784 60.5659 166.735 60.5659C168.642 60.5659 170.242 61.2163 171.535 62.5171C172.836 63.8091 173.488 65.4043 173.489 67.3027C173.489 67.4961 173.471 67.8037 173.437 68.2256Z" fill="#502E16"/>
<path d="M49.6259 24.1557C49.4748 24.1826 49.3219 24.1992 49.1746 24.2076C49.1449 24.22 49.1112 24.2296 49.0809 24.2385C49.0809 24.2385 49.03 24.2512 48.9784 24.2603C48.8754 24.2787 20.1623 29.1196 11.1354 30.6386C11.0536 30.6568 10.93 30.6788 10.7783 30.7023C10.1783 30.7949 8.99524 31.0164 7.71252 30.6315C7.00558 30.4186 6.33128 30.0894 5.75873 29.6742C4.58816 28.82 4.08602 27.7789 3.38999 26.3408C2.45431 24.4069 2.1899 22.7849 1.95555 21.3537C1.80851 20.4384 1.56176 18.9167 1.69409 16.953C1.76791 15.8235 1.83197 14.8599 2.22828 13.7514C2.64293 12.5862 3.50052 10.9997 4.65806 10.0303C5.13778 9.61672 5.64652 9.34776 6.16649 9.22302C6.32951 9.18328 6.4984 9.15676 6.67033 9.14753C6.72345 9.12737 6.78123 9.1135 6.83961 9.1031C19.0633 6.91107 31.2911 4.72188 43.5154 2.53331L45.2875 2.21759C45.3837 2.20046 45.4823 2.19716 45.5799 2.2083C45.6342 2.19505 45.6961 2.18404 45.7579 2.17303C49.2712 1.5471 52.997 5.96904 54.064 12.0273C55.1287 18.0932 53.1392 23.5298 49.6259 24.1557ZM49.6436 23.3109C52.8713 21.566 54.0978 16.2618 53.3749 12.1572C52.3749 6.47931 49.013 2.31351 45.8775 2.87214C45.8088 2.88437 43.635 3.23242 43.635 3.23242C31.4107 5.42099 19.1829 7.61018 6.9592 9.80222C6.93516 9.8065 6.46627 9.87934 6.32729 9.9148C5.916 10.013 5.50542 10.236 5.10525 10.5783C4.0529 11.4613 3.2496 12.9739 2.8811 13.9989C2.51826 15.0158 2.45659 15.9326 2.38554 16.9974C2.25942 18.8958 2.48729 20.3103 2.63799 21.2464C2.86442 22.6326 3.11969 24.2027 4.01083 26.0448C4.68583 27.4438 5.13514 28.3659 6.16358 29.1171C6.9199 29.6707 7.64706 29.8978 7.90756 29.969C9.14741 30.3116 10.1959 30.1106 10.5662 30.041C14.7275 29.2533 29.4675 26.7877 32.2166 26.3479C33.3152 26.17 34.6063 25.9792 38.6522 25.3404C39.4583 25.2111 42.0048 24.8073 45.2256 24.2299C47.9506 23.7337 49.3203 23.4862 49.6436 23.3109Z" stroke="#502E16" stroke-width="3" stroke-miterlimit="10"/>
<path d="M8.07116 29.6627C7.96155 29.6168 7.85195 29.571 7.74234 29.5251C8.23026 28.4578 10.2074 23.8543 8.96772 18.3093C8.04896 14.2003 5.85983 11.7798 4.9449 10.8756C5.14351 10.6777 5.345 10.4787 5.54361 10.2808C6.47194 11.2455 8.68302 13.8214 9.5486 18.1114C10.707 23.865 8.6001 28.5561 8.07116 29.6627Z" fill="#502E16" stroke="#502E16" stroke-width="2"/>
<path d="M41.5706 91.6824C41.8748 90.6232 42.1796 89.5673 42.4838 88.508C42.989 86.7286 43.4941 84.9492 43.9986 83.1664C44.1819 82.8315 44.1495 82.5123 44.1137 82.3497C44.0786 82.1905 43.9776 81.8924 43.6845 81.7112L40.4066 79.6876C39.3715 79.0472 38.6248 77.9166 38.3642 76.586C38.1035 75.2554 38.3435 73.8289 39.0236 72.6685L41.1578 69.0391C41.349 68.7127 41.3293 68.3932 41.3032 68.2312C41.274 68.0702 41.1849 67.7684 40.9047 67.5724L37.183 64.9798C36.1992 64.2948 35.5321 63.1976 35.3045 61.8894C35.0739 60.5822 35.3139 59.2351 35.9766 58.0982L38.1649 54.3437C38.3585 54.0129 38.3344 53.6875 38.3052 53.5265C38.2754 53.362 38.1804 53.0621 37.8882 52.8697L34.4471 50.6177C33.4435 49.9604 32.7251 48.8284 32.4812 47.518C32.2373 46.2076 32.4807 44.7981 33.1522 43.6584L33.2887 43.4537L35.6983 40.2967L35.8843 40.1491C36.1936 39.9057 36.3648 39.495 36.3319 39.0783C36.3004 38.6684 36.0675 38.3132 35.7367 38.1653L31.1422 36.4523L31.0275 36.3862C29.9566 35.7569 29.1826 34.6166 28.9098 33.2572C28.5016 31.4909 28.0933 29.7246 27.688 27.9574C28.9009 27.5882 30.1115 27.2233 31.3243 26.8541C31.6155 28.6528 31.9066 30.4515 32.1971 32.2468C32.2477 32.4989 32.3798 32.7151 32.5637 32.8575L36.9701 34.5017C38.4996 35.142 39.5395 36.7069 39.6852 38.5865C39.822 40.3422 39.1447 42.0696 37.9112 43.1577L35.873 45.8279C35.7245 46.1304 35.747 46.4165 35.7734 46.5639C35.8033 46.7284 35.899 47.0317 36.1905 47.2207L39.6315 49.4727C40.6351 50.13 41.3492 51.256 41.5961 52.5655C41.843 53.875 41.6019 55.2803 40.937 56.4215L38.748 60.1726C38.5597 60.4981 38.5765 60.8186 38.6049 60.9762C38.6341 61.1372 38.7225 61.4356 39.0027 61.6316L42.7244 64.2242C43.7082 64.9093 44.376 66.0098 44.605 67.3248C44.8333 68.6364 44.5909 69.9878 43.9216 71.1231L41.7874 74.7525C41.5886 75.0885 41.6133 75.4173 41.6468 75.5842C41.6803 75.7512 41.7797 76.057 42.0802 76.2432L45.3581 78.2668C45.6746 78.4697 47.0756 79.4172 47.3814 81.2729C47.5283 82.1791 47.3591 82.9473 47.2598 83.3685C46.9243 84.8244 46.1662 85.77 45.7854 86.1946C44.3823 88.0329 42.9765 89.8577 41.5706 91.6824Z" fill="#502E16"/>
</svg>
